<svg id="clock" xmlns="http://www.w3.org/2000/svg" width="97.125" height="73.023" viewBox="0 0 97.125 73.023">
  <path id="Path_3" data-name="Path 3" d="M32.795,137.055h15a1.423,1.423,0,1,0,0-2.845h-15a1.423,1.423,0,1,0,0,2.845Z" transform="translate(-25.421 -120.802)" fill="#3d5af1"/>
  <path id="Path_4" data-name="Path 4" d="M83.862,185.317H77.935a1.423,1.423,0,1,0,0,2.845h5.927a1.423,1.423,0,1,0,0-2.845Z" transform="translate(-61.998 -162.214)" fill="#3d5af1"/>
  <path id="Path_5" data-name="Path 5" d="M1.423,225.172H15.937a1.423,1.423,0,0,0,0-2.845H1.423a1.423,1.423,0,0,0,0,2.845Z" transform="translate(0 -192.203)" fill="#3d5af1"/>
  <path id="Path_6" data-name="Path 6" d="M49.222,364.212a1.423,1.423,0,0,0-1.423-1.423h-15a1.423,1.423,0,1,0,0,2.845h15A1.423,1.423,0,0,0,49.222,364.212Z" transform="translate(-25.421 -306.02)" fill="#3d5af1"/>
  <path id="Path_7" data-name="Path 7" d="M83.862,311.683H77.935a1.423,1.423,0,0,0,0,2.846h5.927a1.423,1.423,0,0,0,0-2.846Z" transform="translate(-61.998 -264.609)" fill="#3d5af1"/>
  <path id="Path_8" data-name="Path 8" d="M17.36,276.1a1.423,1.423,0,0,0-1.423-1.423H1.423a1.423,1.423,0,0,0,0,2.845H15.937A1.423,1.423,0,0,0,17.36,276.1Z" transform="translate(0 -234.619)" fill="#3d5af1"/>
  <path id="Path_9" data-name="Path 9" d="M313.452,144.4a1.423,1.423,0,0,0,1.423-1.423V140.8a1.423,1.423,0,0,0-2.845,0v2.172A1.423,1.423,0,0,0,313.452,144.4Z" transform="translate(-252.838 -124.993)" fill="#3d5af1"/>
  <path id="Path_10" data-name="Path 10" d="M385.056,171.759a1.423,1.423,0,0,0-2.012,0l-1.536,1.536a1.423,1.423,0,1,0,2.012,2.012l1.536-1.536A1.423,1.423,0,0,0,385.056,171.759Z" transform="translate(-308.799 -150.89)" fill="#3d5af1"/>
  <path id="Path_11" data-name="Path 11" d="M411.122,248.5a1.423,1.423,0,0,0,0,2.845h2.172a1.423,1.423,0,0,0,0-2.845Z" transform="translate(-331.98 -213.411)" fill="#3d5af1"/>
  <path id="Path_12" data-name="Path 12" d="M383.52,317.98a1.423,1.423,0,1,0-2.012,2.012l1.536,1.536a1.423,1.423,0,1,0,2.012-2.012Z" transform="translate(-308.799 -269.373)" fill="#3d5af1"/>
  <path id="Path_13" data-name="Path 13" d="M312.029,347.593v2.172a1.423,1.423,0,0,0,2.845,0v-2.172a1.423,1.423,0,0,0-2.845,0Z" transform="translate(-252.838 -292.554)" fill="#3d5af1"/>
  <path id="Path_14" data-name="Path 14" d="M236.823,317.98l-1.536,1.536a1.423,1.423,0,1,0,2.012,2.012l1.536-1.536a1.423,1.423,0,1,0-2.012-2.012Z" transform="translate(-190.316 -269.373)" fill="#3d5af1"/>
  <path id="Path_15" data-name="Path 15" d="M204.334,248.5a1.423,1.423,0,0,0,0,2.845h2.172a1.423,1.423,0,1,0,0-2.845Z" transform="translate(-164.419 -213.411)" fill="#3d5af1"/>
  <path id="Path_16" data-name="Path 16" d="M238.836,173.294l-1.536-1.536a1.423,1.423,0,0,0-2.012,2.012l1.536,1.536a1.423,1.423,0,1,0,2.012-2.012Z" transform="translate(-190.317 -150.89)" fill="#3d5af1"/>
  <path id="Path_17" data-name="Path 17" d="M321.1,198.725a1.423,1.423,0,0,0-1.423-1.423h-4.805V186.739a1.423,1.423,0,1,0-2.845,0v11.986a1.423,1.423,0,0,0,1.423,1.423h6.228A1.423,1.423,0,0,0,321.1,198.725Z" transform="translate(-252.838 -162.213)" fill="#3d5af1"/>
  <path id="Path_18" data-name="Path 18" d="M225.34,134.6a1.423,1.423,0,0,0,1.334-1.506,28.346,28.346,0,1,0-.262,5.986,1.423,1.423,0,1,0-2.814-.422,25.539,25.539,0,1,1,.235-5.391,1.424,1.424,0,0,0,1.506,1.334Z" transform="translate(-137.748 -98.323)" fill="#3d5af1"/>
  <path id="Path_19" data-name="Path 19" d="M144.627,63.529a36.5,36.5,0,0,0-14.42,2.98H105.1a1.423,1.423,0,1,0,0,2.845h19.75a36.473,36.473,0,0,0-7.3,6.185,1.423,1.423,0,0,0,2.109,1.91,33.6,33.6,0,1,1-3.336,4.345,1.423,1.423,0,0,0-2.39-1.544,36.5,36.5,0,0,0,10.922,50.477H105.1a1.423,1.423,0,1,0,0,2.845h25.083a36.51,36.51,0,1,0,14.44-70.043Z" transform="translate(-84.013 -63.529)" fill="#3d5af1"/>
</svg>
