<svg xmlns="http://www.w3.org/2000/svg" xmlns:xlink="http://www.w3.org/1999/xlink" width="436.42" height="677.112" viewBox="0 0 436.42 677.112">
  <defs>
    <linearGradient id="linear-gradient" x1="1" y1="-0.208" x2="0.348" y2="0.873" gradientUnits="objectBoundingBox">
      <stop offset="0" stop-color="#3d5af1"/>
      <stop offset="1" stop-color="#0e153a"/>
    </linearGradient>
  </defs>
  <g id="fingerprint_BG" data-name="fingerprint BG" transform="translate(-91 0)" opacity="0.18">
    <path id="Path_1" data-name="Path 1" d="M309.21,677.112c-64.241,0-121.626-24.671-161.582-69.469a9.918,9.918,0,1,1,14.8-13.2c36.143,40.52,88.27,62.835,146.78,62.835a208.922,208.922,0,0,0,74.138-13.1,9.918,9.918,0,1,1,7.013,18.556,228.671,228.671,0,0,1-81.152,14.381Zm46.948-51.429c-95.422,0-133.269-47.229-151.459-69.926-2.437-3.042-5.373-6.706-7.094-8.363-1.635.481-4.449,1.665-6.8,2.656-11.868,5-31.732,13.354-67.1,13.354a9.919,9.919,0,0,1,0-19.837c31.368,0,48.243-7.1,59.409-11.8,7.637-3.214,13.669-5.755,20.328-3.694,5.983,1.853,10.264,7.194,16.744,15.281,17.5,21.841,50.08,62.493,135.978,62.493,63.922,0,100.3-17.151,109.929-22.408a9.919,9.919,0,1,1,9.509,17.411C461.92,608.315,422.905,625.683,356.158,625.683ZM376,567.4a9.919,9.919,0,1,1,0-19.837c53.451,0,96.839-18.705,128.958-55.6A9.918,9.918,0,1,1,519.913,505C483.861,546.408,435.438,567.4,376,567.4Zm-42.259-4.791a9.9,9.9,0,0,1-2.341-.28c-38.669-9.353-70.208-31.99-91.205-65.463-11.221-17.891-19.435-38.865-24.436-62.105-22.21,49.774-67.209,73.039-109.883,73.039a9.919,9.919,0,1,1,0-19.837c38.683,0,104.15-26.48,104.15-125.73v-76.93c0-50.445,9.218-92.442,26.653-121.452,17.631-29.33,42.712-44.832,72.534-44.832,23.444,0,44.5,9.938,60.9,28.742,16.309,18.7,27.6,45.265,33.549,78.96a9.918,9.918,0,0,1-19.534,3.45c-10.253-58.032-37.559-91.315-74.919-91.315-48.945,0-79.349,56.116-79.349,146.447v93c0,88.372,38.709,148.418,106.2,164.743a9.92,9.92,0,0,1-2.325,19.561ZM379.163,507.8c-35.224,0-64.286-14.584-84.049-42.177-16.494-23.03-25.578-54.039-25.578-87.318v-93c0-19.214,1.214-46.8,6.995-69.1,6.48-25,17.475-37.671,32.68-37.671,4.675,0,11.66,1.531,18.4,8.83,17.306,18.757,25.845,69.735,21.246,126.854a9.918,9.918,0,1,1-19.772-1.592c4.54-56.4-4.881-99.7-16.054-111.808-.842-.913-2.458-2.445-3.817-2.445-8.238,0-19.837,26.972-19.837,86.935,0,58.685,17.99,95.141,46.948,95.141,16.107,0,28.068-6.284,36.568-19.212,10.4-15.816,15.671-41.362,15.671-75.93,0-4.28-.07-8.568-.208-12.745a9.919,9.919,0,1,1,19.827-.655c.144,4.393.218,8.9.218,13.4,0,39.052-6.193,67.452-18.931,86.828-12.282,18.679-30.163,28.15-53.144,28.15-16.766,0-34.131-8.148-46.948-27.849v5.872c0,54.582,27.763,109.658,89.79,109.658,37.125,0,68.688-17.647,91.276-51.033,24.3-35.916,37.143-88.347,37.143-151.624,0-76.141-18.056-141.254-52.218-188.3A203.818,203.818,0,0,0,425,63.511,9.919,9.919,0,0,1,438.082,48.6,223.813,223.813,0,0,1,471.418,85.35c36.635,50.457,56,119.6,56,199.957,0,67.255-14.022,123.531-40.551,162.742C460.421,487.141,423.176,507.8,379.163,507.8ZM365.23,452.919a9.919,9.919,0,0,1,0-19.837c56.917,0,82.84-76.6,82.84-147.774,0-62.4-14.4-119.443-38.528-152.584C384.49,98.3,348.857,79.349,309.21,79.349S233.93,98.3,208.877,132.722c-16.036,22.03-28.183,55.569-34.2,94.44a9.92,9.92,0,0,1-19.606-3.035c6.493-41.935,19.906-78.542,37.767-103.08,28.884-39.681,70.212-61.535,116.371-61.535S396.7,81.366,425.58,121.048c26.5,36.411,42.327,97.816,42.327,164.259,0,44.66-8.911,85.629-25.091,115.36-18.6,34.182-45.431,52.251-77.586,52.251Zm-264.312-.749a9.919,9.919,0,1,1,0-19.837c23.975,0,49.593-18.414,49.593-70.1v-76.93c0-4.463.07-8.965.208-13.381a9.918,9.918,0,0,1,19.827.619c-.131,4.211-.2,8.5-.2,12.762v76.93C170.349,428.617,132.948,452.17,100.919,452.17Zm0-65.524A9.918,9.918,0,0,1,91,376.728V285.307c0-80.355,19.366-149.5,56-199.957C186.969,30.311,244.575,0,309.21,0a191.883,191.883,0,0,1,91.115,22.427,9.919,9.919,0,0,1-9.318,17.512,172.24,172.24,0,0,0-81.8-20.1c-58.114,0-110.02,27.406-146.156,77.168-34.161,47.047-52.217,112.161-52.217,188.3v91.421a9.918,9.918,0,0,1-9.919,9.919Z" transform="translate(0 0)" fill="url(#linear-gradient)"/>
  </g>
</svg>
