<svg xmlns="http://www.w3.org/2000/svg" width="50.453" height="45.966" viewBox="0 0 50.453 45.966">
  <g id="Logo_Icon" data-name="Logo Icon" transform="translate(-0.207)">
    <path id="Union_1" data-name="Union 1" d="M15.22,44.969.48,19.516a2,2,0,0,1,1.731-3H31.692a2,2,0,0,1,1.731,3L18.681,44.969a2,2,0,0,1-3.461,0ZM10.278,6.786a6.786,6.786,0,1,1,6.786,6.787A6.786,6.786,0,0,1,10.278,6.786Z" transform="translate(0 0)" fill="#22d1ee" opacity="0.95"/>
    <path id="Union_2" data-name="Union 2" d="M15.22,44.969.48,19.516a2,2,0,0,1,1.731-3H31.692a2,2,0,0,1,1.731,3L18.681,44.969a2,2,0,0,1-3.461,0ZM10.278,6.786a6.786,6.786,0,1,1,6.786,6.787A6.786,6.786,0,0,1,10.278,6.786Z" transform="translate(16.966 0)" fill="#3d5af1" opacity="0.8"/>
  </g>
</svg>
