<svg xmlns="http://www.w3.org/2000/svg" width="53.533" height="74.248" viewBox="0 0 53.533 74.248">
  <g id="lock" transform="translate(-65.8)">
    <g id="Group_2" data-name="Group 2" transform="translate(65.8)">
      <g id="Group_1" data-name="Group 1">
        <path id="Path_20" data-name="Path 20" d="M112.234,31.575V19.817a19.716,19.716,0,0,0-5.887-14.166A19.087,19.087,0,0,0,92.795,0h-.252a19.771,19.771,0,0,0-19.66,19.817V31.575A8.029,8.029,0,0,0,65.8,39.65V66.063a8.136,8.136,0,0,0,8.075,8.185h37.384a8.136,8.136,0,0,0,8.075-8.185V39.65A8.067,8.067,0,0,0,112.234,31.575ZM76.016,19.817h.016A16.657,16.657,0,0,1,92.559,3.1h.016a16.3,16.3,0,0,1,11.554,4.754,16.668,16.668,0,0,1,4.943,11.963V31.591h-3.463V19.817a13.263,13.263,0,0,0-3.919-9.523,12.762,12.762,0,0,0-9.019-3.746h-.094A13.181,13.181,0,0,0,79.478,19.8v11.79H76.016Zm26.46,0V31.591H82.642V19.817A10.024,10.024,0,0,1,92.59,9.712h.094A9.653,9.653,0,0,1,99.5,12.545,10.146,10.146,0,0,1,102.475,19.817ZM116.327,66.11h0a4.991,4.991,0,0,1-4.99,4.99h-37.4a4.991,4.991,0,0,1-4.99-4.99V39.729a4.991,4.991,0,0,1,4.99-4.99h37.4a4.991,4.991,0,0,1,4.99,4.99Z" transform="translate(-65.8 0)" fill="#3d5af1"/>
      </g>
    </g>
    <g id="Group_4" data-name="Group 4" transform="translate(86.877 47.835)">
      <g id="Group_3" data-name="Group 3">
        <path id="Path_21" data-name="Path 21" d="M210.829,308.008a5.674,5.674,0,1,0-7.02,7.02v4.407a1.574,1.574,0,0,0,3.148,0v-4.407A5.66,5.66,0,0,0,210.829,308.008Zm-5.446,4.093a2.534,2.534,0,1,1,2.534-2.534A2.533,2.533,0,0,1,205.382,312.1Z" transform="translate(-199.7 -303.9)" fill="#3d5af1"/>
      </g>
    </g>
  </g>
</svg>
