<svg xmlns="http://www.w3.org/2000/svg" width="43.945" height="40.12" viewBox="0 0 43.945 40.12">
  <g id="Logo_Icon" data-name="Logo Icon" transform="translate(-178.742 -155)">
    <path id="Union_1" data-name="Union 1" d="M7.5,39.122-5.02,17.5a2,2,0,0,1,1.731-3H21.752a2,2,0,0,1,1.731,3L10.962,39.122a2,2,0,0,1-3.461,0ZM3.371,5.959a5.959,5.959,0,1,1,5.96,5.959A5.959,5.959,0,0,1,3.371,5.959Z" transform="translate(184.035 155)" fill="#22d1ee" opacity="0.95"/>
    <path id="Union_2" data-name="Union 2" d="M7.5,39.122-5.02,17.5a2,2,0,0,1,1.731-3H21.752a2,2,0,0,1,1.731,3L10.962,39.122a2,2,0,0,1-3.461,0ZM3.371,5.959a5.959,5.959,0,1,1,5.96,5.959A5.959,5.959,0,0,1,3.371,5.959Z" transform="translate(198.932 155)" fill="#3d5af1" opacity="0.8"/>
  </g>
</svg>
