<svg xmlns="http://www.w3.org/2000/svg" width="113.838" height="40.12" viewBox="0 0 113.838 40.12">
  <g id="Group_7" data-name="Group 7" transform="translate(-89.162 -8.325)">
    <text id="WHOIS" transform="translate(139 37)" fill="#e2f3f5" font-size="20" font-family="Roboto-Bold, Roboto" font-weight="700"><tspan x="0" y="0">WHOIS</tspan></text>
    <g id="Logo_Icon" data-name="Logo Icon" transform="translate(-89.581 -146.675)">
      <path id="Union_1" data-name="Union 1" d="M7.5,39.122-5.02,17.5a2,2,0,0,1,1.731-3H21.752a2,2,0,0,1,1.731,3L10.962,39.122a2,2,0,0,1-3.461,0ZM3.371,5.959a5.959,5.959,0,1,1,5.96,5.959A5.959,5.959,0,0,1,3.371,5.959Z" transform="translate(184.035 155)" fill="#22d1ee" opacity="0.95"/>
      <path id="Union_2" data-name="Union 2" d="M7.5,39.122-5.02,17.5a2,2,0,0,1,1.731-3H21.752a2,2,0,0,1,1.731,3L10.962,39.122a2,2,0,0,1-3.461,0ZM3.371,5.959a5.959,5.959,0,1,1,5.96,5.959A5.959,5.959,0,0,1,3.371,5.959Z" transform="translate(198.932 155)" fill="#3d5af1" opacity="0.8"/>
    </g>
  </g>
</svg>
